<svg xmlns="http://www.w3.org/2000/svg" xmlns:xlink="http://www.w3.org/1999/xlink" width="272.899" height="298" viewBox="0 0 272.899 298">
  <defs>
    <radialGradient id="radial-gradient" cx="0.5" cy="0.5" r="0.5" gradientUnits="objectBoundingBox">
      <stop offset="0" stop-color="#b2b1b7"/>
      <stop offset="1" stop-color="#6e6d74"/>
    </radialGradient>
    <filter id="Path_3" x="45.564" y="0" width="227.336" height="227.336" filterUnits="userSpaceOnUse">
      <feOffset dy="3" input="SourceAlpha"/>
      <feGaussianBlur stdDeviation="3" result="blur"/>
      <feFlood flood-opacity="0.161"/>
      <feComposite operator="in" in2="blur"/>
    </filter>
    <filter id="Path_3-2" x="45.564" y="0" width="227.336" height="227.336" filterUnits="userSpaceOnUse">
      <feOffset dy="3" input="SourceAlpha"/>
      <feGaussianBlur stdDeviation="3" result="blur-2"/>
      <feFlood flood-opacity="0.161" result="color"/>
      <feComposite operator="out" in="SourceGraphic" in2="blur-2"/>
      <feComposite operator="in" in="color"/>
      <feComposite operator="in" in2="SourceGraphic"/>
    </filter>
    <radialGradient id="radial-gradient-2" cx="0.5" cy="0.5" r="0.5" gradientUnits="objectBoundingBox">
      <stop offset="0" stop-color="#a7a073"/>
      <stop offset="0" stop-color="#989168"/>
      <stop offset="0.853" stop-color="#222017"/>
      <stop offset="1"/>
    </radialGradient>
    <filter id="Path_2" x="56.28" y="17.716" width="205.903" height="205.903" filterUnits="userSpaceOnUse">
      <feOffset dy="10" input="SourceAlpha"/>
      <feGaussianBlur stdDeviation="5" result="blur-3"/>
      <feFlood flood-opacity="0.161"/>
      <feComposite operator="in" in2="blur-3"/>
    </filter>
    <filter id="Path_2-2" x="56.28" y="17.716" width="205.903" height="205.903" filterUnits="userSpaceOnUse">
      <feOffset dy="10" input="SourceAlpha"/>
      <feGaussianBlur stdDeviation="5" result="blur-4"/>
      <feFlood flood-opacity="0.161" result="color-2"/>
      <feComposite operator="out" in="SourceGraphic" in2="blur-4"/>
      <feComposite operator="in" in="color-2"/>
      <feComposite operator="in" in2="SourceGraphic"/>
    </filter>
    <clipPath id="clip">
      <use xlink:href="#fill"/>
    </clipPath>
  </defs>
  <g id="Rectangle_160" data-name="Rectangle 160" transform="translate(96.006 147.088) rotate(41)" stroke="#707070" stroke-width="1" fill="url(#radial-gradient)">
    <rect width="61.685" height="146.338" rx="30" stroke="none"/>
    <rect x="0.5" y="0.5" width="60.685" height="145.338" rx="29.5" fill="none"/>
  </g>
  <g id="Rectangle_5" data-name="Rectangle 5" transform="translate(66.148 253)" fill="#fff" stroke="#707070" stroke-width="1">
    <rect id="fill" width="1" stroke="none"/>
    <path d="M0,-0.49998999999479565h1M0.5,0v0.000010000005204346962M1,0.5h-1M0.5,0.000010000005204346962v-0.000010000005204346962" fill="none" clip-path="url(#clip)"/>
  </g>
  <g data-type="innerShadowGroup">
    <g transform="matrix(1, 0, 0, 1, 0, 0)" filter="url(#Path_3)">
      <g id="Path_3-3" data-name="Path 3" transform="translate(54.56 6)" fill="#81807b">
        <path d="M 104.6677856445312 208.8355712890625 C 97.59981536865234 208.8355712890625 90.53641510009766 208.12353515625 83.67381286621094 206.7192535400391 C 76.98586273193359 205.3506927490234 70.40741729736328 203.3086242675781 64.12112426757812 200.6497497558594 C 57.9488639831543 198.0390930175781 51.99568176269531 194.8078002929688 46.42694473266602 191.0456390380859 C 40.91096878051758 187.3191223144531 35.72396850585938 183.0394592285156 31.01004791259766 178.3255157470703 C 26.29610061645508 173.6115875244141 22.01644325256348 168.4245910644531 18.2899169921875 162.9086151123047 C 14.52775955200195 157.3398895263672 11.29646968841553 151.3867034912109 8.685811996459961 145.2144317626953 C 6.026943683624268 138.9281463623047 3.984864473342896 132.3497009277344 2.616312026977539 125.661750793457 C 1.212022542953491 118.7991485595703 0.4999961853027344 111.7357482910156 0.4999961853027344 104.6677780151367 C 0.4999961853027344 97.59980773925781 1.212022542953491 90.53640747070312 2.616312026977539 83.67380523681641 C 3.984864473342896 76.98588562011719 6.026943683624268 70.40740966796875 8.685811996459961 64.12111663818359 C 11.29646968841553 57.94888305664062 14.52775955200195 51.99567413330078 18.2899169921875 46.42693710327148 C 22.01644325256348 40.91096115112305 26.29610061645508 35.72396087646484 31.01004791259766 31.01004028320312 C 35.72396850585938 26.29611968994141 40.91096878051758 22.0164623260498 46.42694473266602 18.28993606567383 C 51.99568176269531 14.52775192260742 57.9488639831543 11.296462059021 64.12112426757812 8.685831069946289 C 70.40741729736328 6.026962280273438 76.98586273193359 3.984883308410645 83.67381286621094 2.616330623626709 C 90.53641510009766 1.212041139602661 97.59981536865234 0.5000148415565491 104.6677856445312 0.5000148415565491 C 111.7357559204102 0.5000148415565491 118.7991561889648 1.212041139602661 125.6617584228516 2.616330623626709 C 132.3497009277344 3.984883308410645 138.9281616210938 6.026962280273438 145.2144470214844 8.685831069946289 C 151.3867034912109 11.296462059021 157.3398895263672 14.52775192260742 162.9086303710938 18.28993606567383 C 168.4246063232422 22.0164623260498 173.6116027832031 26.29611968994141 178.3255157470703 31.01004028320312 C 183.0394744873047 35.72396087646484 187.3191223144531 40.91096115112305 191.045654296875 46.42693710327148 C 194.8078155517578 51.99567413330078 198.0391082763672 57.94888305664062 200.6497650146484 64.12111663818359 C 203.3086242675781 70.40740966796875 205.3507080078125 76.98588562011719 206.7192535400391 83.67380523681641 C 208.1235504150391 90.53640747070312 208.8355712890625 97.59980773925781 208.8355712890625 104.6677780151367 C 208.8355712890625 111.7357482910156 208.1235504150391 118.7991485595703 206.7192535400391 125.661750793457 C 205.3507080078125 132.3497009277344 203.3086242675781 138.9281463623047 200.6497650146484 145.2144317626953 C 198.0391082763672 151.3867034912109 194.8078155517578 157.3398895263672 191.045654296875 162.9086151123047 C 187.3191223144531 168.4245910644531 183.0394744873047 173.6115875244141 178.3255157470703 178.3255157470703 C 173.6116027832031 183.0394592285156 168.4246063232422 187.3191223144531 162.9086303710938 191.0456390380859 C 157.3398895263672 194.8078002929688 151.3867034912109 198.0390930175781 145.2144470214844 200.6497497558594 C 138.9281616210938 203.3086242675781 132.3497009277344 205.3506927490234 125.6617584228516 206.7192535400391 C 118.7991561889648 208.12353515625 111.7357559204102 208.8355712890625 104.6677856445312 208.8355712890625 Z" stroke="none"/>
        <path d="M 104.6677856445312 0.9999847412109375 C 97.63341522216797 0.9999847412109375 90.60372924804688 1.7086181640625 83.7740478515625 3.106170654296875 C 77.11843872070312 4.468093872070312 70.57179260253906 6.50030517578125 64.31591796875 9.14630126953125 C 58.17338562011719 11.744384765625 52.24884033203125 14.96011352539062 46.70683288574219 18.7042236328125 C 41.21723937988281 22.41293334960938 36.05502319335938 26.67214965820312 31.36360168457031 31.36358642578125 C 26.67214965820312 36.05500793457031 22.41294860839844 41.21722412109375 18.70423889160156 46.70683288574219 C 14.96012878417969 52.24882507324219 11.744384765625 58.17338562011719 9.146316528320312 64.31590270996094 C 6.50030517578125 70.57177734375 4.468093872070312 77.11843872070312 3.106185913085938 83.77404022216797 C 1.708633422851562 90.60372161865234 1 97.63340759277344 1 104.6677780151367 C 1 111.7021484375 1.708633422851562 118.7318344116211 3.106185913085938 125.5615158081055 C 4.468093872070312 132.2171173095703 6.50030517578125 138.7637786865234 9.146316528320312 145.0196533203125 C 11.744384765625 151.1621704101562 14.96012878417969 157.0867309570312 18.70423889160156 162.6287231445312 C 22.41294860839844 168.1183319091797 26.67214965820312 173.2805480957031 31.36360168457031 177.9719543457031 C 36.05502319335938 182.6633911132812 41.21723937988281 186.9226226806641 46.70683288574219 190.6313018798828 C 52.24884033203125 194.3754119873047 58.17338562011719 197.5911407470703 64.31591796875 200.1892242431641 C 70.57179260253906 202.8352203369141 77.11843872070312 204.867431640625 83.7740478515625 206.2293548583984 C 90.60372924804688 207.6269073486328 97.63341522216797 208.3355407714844 104.6677856445312 208.3355407714844 C 111.7021560668945 208.3355407714844 118.7318420410156 207.6269073486328 125.5615234375 206.2293548583984 C 132.2171325683594 204.867431640625 138.7637939453125 202.8352203369141 145.0196533203125 200.1892242431641 C 151.1621856689453 197.5911407470703 157.0867309570312 194.3754119873047 162.6287384033203 190.6313018798828 C 168.1183471679688 186.9226226806641 173.2805480957031 182.6633911132812 177.9719696044922 177.9719543457031 C 182.6634216308594 173.2805480957031 186.9226226806641 168.1183319091797 190.6313323974609 162.6287231445312 C 194.3754425048828 157.0867309570312 197.5911865234375 151.1621704101562 200.1892547607422 145.0196533203125 C 202.8352661132812 138.7637786865234 204.8674621582031 132.2171173095703 206.2293853759766 125.5615158081055 C 207.6269378662109 118.7318344116211 208.3355712890625 111.7021484375 208.3355712890625 104.6677780151367 C 208.3355712890625 97.63340759277344 207.6269378662109 90.60372161865234 206.2293853759766 83.77404022216797 C 204.8674621582031 77.11843872070312 202.8352661132812 70.57177734375 200.1892547607422 64.31590270996094 C 197.5911865234375 58.17338562011719 194.3754425048828 52.24882507324219 190.6313323974609 46.70683288574219 C 186.9226226806641 41.21722412109375 182.6634216308594 36.05500793457031 177.9719696044922 31.36358642578125 C 173.2805480957031 26.67214965820312 168.1183471679688 22.41293334960938 162.6287384033203 18.7042236328125 C 157.0867309570312 14.96011352539062 151.1621856689453 11.744384765625 145.0196533203125 9.14630126953125 C 138.7637939453125 6.50030517578125 132.2171325683594 4.468093872070312 125.5615234375 3.106170654296875 C 118.7318420410156 1.7086181640625 111.7021560668945 0.9999847412109375 104.6677856445312 0.9999847412109375 M 104.6677856445312 -1.52587890625e-05 C 162.4742126464844 -1.52587890625e-05 209.3355712890625 46.86135864257812 209.3355712890625 104.6677780151367 C 209.3355712890625 162.4741973876953 162.4742126464844 209.3355407714844 104.6677856445312 209.3355407714844 C 46.86135864257812 209.3355407714844 0 162.4741973876953 0 104.6677780151367 C 0 46.86135864257812 46.86135864257812 -1.52587890625e-05 104.6677856445312 -1.52587890625e-05 Z" stroke="none" fill="#707070"/>
      </g>
    </g>
    <g id="Path_3-4" data-name="Path 3" transform="translate(54.564 6)" fill="#81807b">
      <path d="M 104.6677856445312 208.8355712890625 C 97.59981536865234 208.8355712890625 90.53641510009766 208.12353515625 83.67381286621094 206.7192535400391 C 76.98586273193359 205.3506927490234 70.40741729736328 203.3086242675781 64.12112426757812 200.6497497558594 C 57.9488639831543 198.0390930175781 51.99568176269531 194.8078002929688 46.42694473266602 191.0456390380859 C 40.91096878051758 187.3191223144531 35.72396850585938 183.0394592285156 31.01004791259766 178.3255157470703 C 26.29610061645508 173.6115875244141 22.01644325256348 168.4245910644531 18.2899169921875 162.9086151123047 C 14.52775955200195 157.3398895263672 11.29646968841553 151.3867034912109 8.685811996459961 145.2144317626953 C 6.026943683624268 138.9281463623047 3.984864473342896 132.3497009277344 2.616312026977539 125.661750793457 C 1.212022542953491 118.7991485595703 0.4999961853027344 111.7357482910156 0.4999961853027344 104.6677780151367 C 0.4999961853027344 97.59980773925781 1.212022542953491 90.53640747070312 2.616312026977539 83.67380523681641 C 3.984864473342896 76.98588562011719 6.026943683624268 70.40740966796875 8.685811996459961 64.12111663818359 C 11.29646968841553 57.94888305664062 14.52775955200195 51.99567413330078 18.2899169921875 46.42693710327148 C 22.01644325256348 40.91096115112305 26.29610061645508 35.72396087646484 31.01004791259766 31.01004028320312 C 35.72396850585938 26.29611968994141 40.91096878051758 22.0164623260498 46.42694473266602 18.28993606567383 C 51.99568176269531 14.52775192260742 57.9488639831543 11.296462059021 64.12112426757812 8.685831069946289 C 70.40741729736328 6.026962280273438 76.98586273193359 3.984883308410645 83.67381286621094 2.616330623626709 C 90.53641510009766 1.212041139602661 97.59981536865234 0.5000148415565491 104.6677856445312 0.5000148415565491 C 111.7357559204102 0.5000148415565491 118.7991561889648 1.212041139602661 125.6617584228516 2.616330623626709 C 132.3497009277344 3.984883308410645 138.9281616210938 6.026962280273438 145.2144470214844 8.685831069946289 C 151.3867034912109 11.296462059021 157.3398895263672 14.52775192260742 162.9086303710938 18.28993606567383 C 168.4246063232422 22.0164623260498 173.6116027832031 26.29611968994141 178.3255157470703 31.01004028320312 C 183.0394744873047 35.72396087646484 187.3191223144531 40.91096115112305 191.045654296875 46.42693710327148 C 194.8078155517578 51.99567413330078 198.0391082763672 57.94888305664062 200.6497650146484 64.12111663818359 C 203.3086242675781 70.40740966796875 205.3507080078125 76.98588562011719 206.7192535400391 83.67380523681641 C 208.1235504150391 90.53640747070312 208.8355712890625 97.59980773925781 208.8355712890625 104.6677780151367 C 208.8355712890625 111.7357482910156 208.1235504150391 118.7991485595703 206.7192535400391 125.661750793457 C 205.3507080078125 132.3497009277344 203.3086242675781 138.9281463623047 200.6497650146484 145.2144317626953 C 198.0391082763672 151.3867034912109 194.8078155517578 157.3398895263672 191.045654296875 162.9086151123047 C 187.3191223144531 168.4245910644531 183.0394744873047 173.6115875244141 178.3255157470703 178.3255157470703 C 173.6116027832031 183.0394592285156 168.4246063232422 187.3191223144531 162.9086303710938 191.0456390380859 C 157.3398895263672 194.8078002929688 151.3867034912109 198.0390930175781 145.2144470214844 200.6497497558594 C 138.9281616210938 203.3086242675781 132.3497009277344 205.3506927490234 125.6617584228516 206.7192535400391 C 118.7991561889648 208.12353515625 111.7357559204102 208.8355712890625 104.6677856445312 208.8355712890625 Z" stroke="none"/>
      <path d="M 104.6677856445312 0.9999847412109375 C 97.63341522216797 0.9999847412109375 90.60372924804688 1.7086181640625 83.7740478515625 3.106170654296875 C 77.11843872070312 4.468093872070312 70.57179260253906 6.50030517578125 64.31591796875 9.14630126953125 C 58.17338562011719 11.744384765625 52.24884033203125 14.96011352539062 46.70683288574219 18.7042236328125 C 41.21723937988281 22.41293334960938 36.05502319335938 26.67214965820312 31.36360168457031 31.36358642578125 C 26.67214965820312 36.05500793457031 22.41294860839844 41.21722412109375 18.70423889160156 46.70683288574219 C 14.96012878417969 52.24882507324219 11.744384765625 58.17338562011719 9.146316528320312 64.31590270996094 C 6.50030517578125 70.57177734375 4.468093872070312 77.11843872070312 3.106185913085938 83.77404022216797 C 1.708633422851562 90.60372161865234 1 97.63340759277344 1 104.6677780151367 C 1 111.7021484375 1.708633422851562 118.7318344116211 3.106185913085938 125.5615158081055 C 4.468093872070312 132.2171173095703 6.50030517578125 138.7637786865234 9.146316528320312 145.0196533203125 C 11.744384765625 151.1621704101562 14.96012878417969 157.0867309570312 18.70423889160156 162.6287231445312 C 22.41294860839844 168.1183319091797 26.67214965820312 173.2805480957031 31.36360168457031 177.9719543457031 C 36.05502319335938 182.6633911132812 41.21723937988281 186.9226226806641 46.70683288574219 190.6313018798828 C 52.24884033203125 194.3754119873047 58.17338562011719 197.5911407470703 64.31591796875 200.1892242431641 C 70.57179260253906 202.8352203369141 77.11843872070312 204.867431640625 83.7740478515625 206.2293548583984 C 90.60372924804688 207.6269073486328 97.63341522216797 208.3355407714844 104.6677856445312 208.3355407714844 C 111.7021560668945 208.3355407714844 118.7318420410156 207.6269073486328 125.5615234375 206.2293548583984 C 132.2171325683594 204.867431640625 138.7637939453125 202.8352203369141 145.0196533203125 200.1892242431641 C 151.1621856689453 197.5911407470703 157.0867309570312 194.3754119873047 162.6287384033203 190.6313018798828 C 168.1183471679688 186.9226226806641 173.2805480957031 182.6633911132812 177.9719696044922 177.9719543457031 C 182.6634216308594 173.2805480957031 186.9226226806641 168.1183319091797 190.6313323974609 162.6287231445312 C 194.3754425048828 157.0867309570312 197.5911865234375 151.1621704101562 200.1892547607422 145.0196533203125 C 202.8352661132812 138.7637786865234 204.8674621582031 132.2171173095703 206.2293853759766 125.5615158081055 C 207.6269378662109 118.7318344116211 208.3355712890625 111.7021484375 208.3355712890625 104.6677780151367 C 208.3355712890625 97.63340759277344 207.6269378662109 90.60372161865234 206.2293853759766 83.77404022216797 C 204.8674621582031 77.11843872070312 202.8352661132812 70.57177734375 200.1892547607422 64.31590270996094 C 197.5911865234375 58.17338562011719 194.3754425048828 52.24882507324219 190.6313323974609 46.70683288574219 C 186.9226226806641 41.21722412109375 182.6634216308594 36.05500793457031 177.9719696044922 31.36358642578125 C 173.2805480957031 26.67214965820312 168.1183471679688 22.41293334960938 162.6287384033203 18.7042236328125 C 157.0867309570312 14.96011352539062 151.1621856689453 11.744384765625 145.0196533203125 9.14630126953125 C 138.7637939453125 6.50030517578125 132.2171325683594 4.468093872070312 125.5615234375 3.106170654296875 C 118.7318420410156 1.7086181640625 111.7021560668945 0.9999847412109375 104.6677856445312 0.9999847412109375 M 104.6677856445312 -1.52587890625e-05 C 162.4742126464844 -1.52587890625e-05 209.3355712890625 46.86135864257812 209.3355712890625 104.6677780151367 C 209.3355712890625 162.4741973876953 162.4742126464844 209.3355407714844 104.6677856445312 209.3355407714844 C 46.86135864257812 209.3355407714844 0 162.4741973876953 0 104.6677780151367 C 0 46.86135864257812 46.86135864257812 -1.52587890625e-05 104.6677856445312 -1.52587890625e-05 Z" stroke="none"/>
    </g>
    <g transform="matrix(1, 0, 0, 1, 0, 0)" filter="url(#Path_3-2)">
      <g id="Path_3-5" data-name="Path 3" transform="translate(54.56 6)" fill="#fff">
        <path d="M 104.6677856445312 208.8355712890625 C 97.59981536865234 208.8355712890625 90.53641510009766 208.12353515625 83.67381286621094 206.7192535400391 C 76.98586273193359 205.3506927490234 70.40741729736328 203.3086242675781 64.12112426757812 200.6497497558594 C 57.9488639831543 198.0390930175781 51.99568176269531 194.8078002929688 46.42694473266602 191.0456390380859 C 40.91096878051758 187.3191223144531 35.72396850585938 183.0394592285156 31.01004791259766 178.3255157470703 C 26.29610061645508 173.6115875244141 22.01644325256348 168.4245910644531 18.2899169921875 162.9086151123047 C 14.52775955200195 157.3398895263672 11.29646968841553 151.3867034912109 8.685811996459961 145.2144317626953 C 6.026943683624268 138.9281463623047 3.984864473342896 132.3497009277344 2.616312026977539 125.661750793457 C 1.212022542953491 118.7991485595703 0.4999961853027344 111.7357482910156 0.4999961853027344 104.6677780151367 C 0.4999961853027344 97.59980773925781 1.212022542953491 90.53640747070312 2.616312026977539 83.67380523681641 C 3.984864473342896 76.98588562011719 6.026943683624268 70.40740966796875 8.685811996459961 64.12111663818359 C 11.29646968841553 57.94888305664062 14.52775955200195 51.99567413330078 18.2899169921875 46.42693710327148 C 22.01644325256348 40.91096115112305 26.29610061645508 35.72396087646484 31.01004791259766 31.01004028320312 C 35.72396850585938 26.29611968994141 40.91096878051758 22.0164623260498 46.42694473266602 18.28993606567383 C 51.99568176269531 14.52775192260742 57.9488639831543 11.296462059021 64.12112426757812 8.685831069946289 C 70.40741729736328 6.026962280273438 76.98586273193359 3.984883308410645 83.67381286621094 2.616330623626709 C 90.53641510009766 1.212041139602661 97.59981536865234 0.5000148415565491 104.6677856445312 0.5000148415565491 C 111.7357559204102 0.5000148415565491 118.7991561889648 1.212041139602661 125.6617584228516 2.616330623626709 C 132.3497009277344 3.984883308410645 138.9281616210938 6.026962280273438 145.2144470214844 8.685831069946289 C 151.3867034912109 11.296462059021 157.3398895263672 14.52775192260742 162.9086303710938 18.28993606567383 C 168.4246063232422 22.0164623260498 173.6116027832031 26.29611968994141 178.3255157470703 31.01004028320312 C 183.0394744873047 35.72396087646484 187.3191223144531 40.91096115112305 191.045654296875 46.42693710327148 C 194.8078155517578 51.99567413330078 198.0391082763672 57.94888305664062 200.6497650146484 64.12111663818359 C 203.3086242675781 70.40740966796875 205.3507080078125 76.98588562011719 206.7192535400391 83.67380523681641 C 208.1235504150391 90.53640747070312 208.8355712890625 97.59980773925781 208.8355712890625 104.6677780151367 C 208.8355712890625 111.7357482910156 208.1235504150391 118.7991485595703 206.7192535400391 125.661750793457 C 205.3507080078125 132.3497009277344 203.3086242675781 138.9281463623047 200.6497650146484 145.2144317626953 C 198.0391082763672 151.3867034912109 194.8078155517578 157.3398895263672 191.045654296875 162.9086151123047 C 187.3191223144531 168.4245910644531 183.0394744873047 173.6115875244141 178.3255157470703 178.3255157470703 C 173.6116027832031 183.0394592285156 168.4246063232422 187.3191223144531 162.9086303710938 191.0456390380859 C 157.3398895263672 194.8078002929688 151.3867034912109 198.0390930175781 145.2144470214844 200.6497497558594 C 138.9281616210938 203.3086242675781 132.3497009277344 205.3506927490234 125.6617584228516 206.7192535400391 C 118.7991561889648 208.12353515625 111.7357559204102 208.8355712890625 104.6677856445312 208.8355712890625 Z" stroke="none"/>
        <path d="M 104.6677856445312 0.9999847412109375 C 97.63341522216797 0.9999847412109375 90.60372924804688 1.7086181640625 83.7740478515625 3.106170654296875 C 77.11843872070312 4.468093872070312 70.57179260253906 6.50030517578125 64.31591796875 9.14630126953125 C 58.17338562011719 11.744384765625 52.24884033203125 14.96011352539062 46.70683288574219 18.7042236328125 C 41.21723937988281 22.41293334960938 36.05502319335938 26.67214965820312 31.36360168457031 31.36358642578125 C 26.67214965820312 36.05500793457031 22.41294860839844 41.21722412109375 18.70423889160156 46.70683288574219 C 14.96012878417969 52.24882507324219 11.744384765625 58.17338562011719 9.146316528320312 64.31590270996094 C 6.50030517578125 70.57177734375 4.468093872070312 77.11843872070312 3.106185913085938 83.77404022216797 C 1.708633422851562 90.60372161865234 1 97.63340759277344 1 104.6677780151367 C 1 111.7021484375 1.708633422851562 118.7318344116211 3.106185913085938 125.5615158081055 C 4.468093872070312 132.2171173095703 6.50030517578125 138.7637786865234 9.146316528320312 145.0196533203125 C 11.744384765625 151.1621704101562 14.96012878417969 157.0867309570312 18.70423889160156 162.6287231445312 C 22.41294860839844 168.1183319091797 26.67214965820312 173.2805480957031 31.36360168457031 177.9719543457031 C 36.05502319335938 182.6633911132812 41.21723937988281 186.9226226806641 46.70683288574219 190.6313018798828 C 52.24884033203125 194.3754119873047 58.17338562011719 197.5911407470703 64.31591796875 200.1892242431641 C 70.57179260253906 202.8352203369141 77.11843872070312 204.867431640625 83.7740478515625 206.2293548583984 C 90.60372924804688 207.6269073486328 97.63341522216797 208.3355407714844 104.6677856445312 208.3355407714844 C 111.7021560668945 208.3355407714844 118.7318420410156 207.6269073486328 125.5615234375 206.2293548583984 C 132.2171325683594 204.867431640625 138.7637939453125 202.8352203369141 145.0196533203125 200.1892242431641 C 151.1621856689453 197.5911407470703 157.0867309570312 194.3754119873047 162.6287384033203 190.6313018798828 C 168.1183471679688 186.9226226806641 173.2805480957031 182.6633911132812 177.9719696044922 177.9719543457031 C 182.6634216308594 173.2805480957031 186.9226226806641 168.1183319091797 190.6313323974609 162.6287231445312 C 194.3754425048828 157.0867309570312 197.5911865234375 151.1621704101562 200.1892547607422 145.0196533203125 C 202.8352661132812 138.7637786865234 204.8674621582031 132.2171173095703 206.2293853759766 125.5615158081055 C 207.6269378662109 118.7318344116211 208.3355712890625 111.7021484375 208.3355712890625 104.6677780151367 C 208.3355712890625 97.63340759277344 207.6269378662109 90.60372161865234 206.2293853759766 83.77404022216797 C 204.8674621582031 77.11843872070312 202.8352661132812 70.57177734375 200.1892547607422 64.31590270996094 C 197.5911865234375 58.17338562011719 194.3754425048828 52.24882507324219 190.6313323974609 46.70683288574219 C 186.9226226806641 41.21722412109375 182.6634216308594 36.05500793457031 177.9719696044922 31.36358642578125 C 173.2805480957031 26.67214965820312 168.1183471679688 22.41293334960938 162.6287384033203 18.7042236328125 C 157.0867309570312 14.96011352539062 151.1621856689453 11.744384765625 145.0196533203125 9.14630126953125 C 138.7637939453125 6.50030517578125 132.2171325683594 4.468093872070312 125.5615234375 3.106170654296875 C 118.7318420410156 1.7086181640625 111.7021560668945 0.9999847412109375 104.6677856445312 0.9999847412109375 M 104.6677856445312 -1.52587890625e-05 C 162.4742126464844 -1.52587890625e-05 209.3355712890625 46.86135864257812 209.3355712890625 104.6677780151367 C 209.3355712890625 162.4741973876953 162.4742126464844 209.3355407714844 104.6677856445312 209.3355407714844 C 46.86135864257812 209.3355407714844 0 162.4741973876953 0 104.6677780151367 C 0 46.86135864257812 46.86135864257812 -1.52587890625e-05 104.6677856445312 -1.52587890625e-05 Z" stroke="none"/>
      </g>
    </g>
    <g id="Path_3-6" data-name="Path 3" transform="translate(54.564 6)" fill="none">
      <path d="M 104.6677856445312 208.8355712890625 C 97.59981536865234 208.8355712890625 90.53641510009766 208.12353515625 83.67381286621094 206.7192535400391 C 76.98586273193359 205.3506927490234 70.40741729736328 203.3086242675781 64.12112426757812 200.6497497558594 C 57.9488639831543 198.0390930175781 51.99568176269531 194.8078002929688 46.42694473266602 191.0456390380859 C 40.91096878051758 187.3191223144531 35.72396850585938 183.0394592285156 31.01004791259766 178.3255157470703 C 26.29610061645508 173.6115875244141 22.01644325256348 168.4245910644531 18.2899169921875 162.9086151123047 C 14.52775955200195 157.3398895263672 11.29646968841553 151.3867034912109 8.685811996459961 145.2144317626953 C 6.026943683624268 138.9281463623047 3.984864473342896 132.3497009277344 2.616312026977539 125.661750793457 C 1.212022542953491 118.7991485595703 0.4999961853027344 111.7357482910156 0.4999961853027344 104.6677780151367 C 0.4999961853027344 97.59980773925781 1.212022542953491 90.53640747070312 2.616312026977539 83.67380523681641 C 3.984864473342896 76.98588562011719 6.026943683624268 70.40740966796875 8.685811996459961 64.12111663818359 C 11.29646968841553 57.94888305664062 14.52775955200195 51.99567413330078 18.2899169921875 46.42693710327148 C 22.01644325256348 40.91096115112305 26.29610061645508 35.72396087646484 31.01004791259766 31.01004028320312 C 35.72396850585938 26.29611968994141 40.91096878051758 22.0164623260498 46.42694473266602 18.28993606567383 C 51.99568176269531 14.52775192260742 57.9488639831543 11.296462059021 64.12112426757812 8.685831069946289 C 70.40741729736328 6.026962280273438 76.98586273193359 3.984883308410645 83.67381286621094 2.616330623626709 C 90.53641510009766 1.212041139602661 97.59981536865234 0.5000148415565491 104.6677856445312 0.5000148415565491 C 111.7357559204102 0.5000148415565491 118.7991561889648 1.212041139602661 125.6617584228516 2.616330623626709 C 132.3497009277344 3.984883308410645 138.9281616210938 6.026962280273438 145.2144470214844 8.685831069946289 C 151.3867034912109 11.296462059021 157.3398895263672 14.52775192260742 162.9086303710938 18.28993606567383 C 168.4246063232422 22.0164623260498 173.6116027832031 26.29611968994141 178.3255157470703 31.01004028320312 C 183.0394744873047 35.72396087646484 187.3191223144531 40.91096115112305 191.045654296875 46.42693710327148 C 194.8078155517578 51.99567413330078 198.0391082763672 57.94888305664062 200.6497650146484 64.12111663818359 C 203.3086242675781 70.40740966796875 205.3507080078125 76.98588562011719 206.7192535400391 83.67380523681641 C 208.1235504150391 90.53640747070312 208.8355712890625 97.59980773925781 208.8355712890625 104.6677780151367 C 208.8355712890625 111.7357482910156 208.1235504150391 118.7991485595703 206.7192535400391 125.661750793457 C 205.3507080078125 132.3497009277344 203.3086242675781 138.9281463623047 200.6497650146484 145.2144317626953 C 198.0391082763672 151.3867034912109 194.8078155517578 157.3398895263672 191.045654296875 162.9086151123047 C 187.3191223144531 168.4245910644531 183.0394744873047 173.6115875244141 178.3255157470703 178.3255157470703 C 173.6116027832031 183.0394592285156 168.4246063232422 187.3191223144531 162.9086303710938 191.0456390380859 C 157.3398895263672 194.8078002929688 151.3867034912109 198.0390930175781 145.2144470214844 200.6497497558594 C 138.9281616210938 203.3086242675781 132.3497009277344 205.3506927490234 125.6617584228516 206.7192535400391 C 118.7991561889648 208.12353515625 111.7357559204102 208.8355712890625 104.6677856445312 208.8355712890625 Z" stroke="none"/>
      <path d="M 104.6677856445312 0.9999847412109375 C 97.63341522216797 0.9999847412109375 90.60372924804688 1.7086181640625 83.7740478515625 3.106170654296875 C 77.11843872070312 4.468093872070312 70.57179260253906 6.50030517578125 64.31591796875 9.14630126953125 C 58.17338562011719 11.744384765625 52.24884033203125 14.96011352539062 46.70683288574219 18.7042236328125 C 41.21723937988281 22.41293334960938 36.05502319335938 26.67214965820312 31.36360168457031 31.36358642578125 C 26.67214965820312 36.05500793457031 22.41294860839844 41.21722412109375 18.70423889160156 46.70683288574219 C 14.96012878417969 52.24882507324219 11.744384765625 58.17338562011719 9.146316528320312 64.31590270996094 C 6.50030517578125 70.57177734375 4.468093872070312 77.11843872070312 3.106185913085938 83.77404022216797 C 1.708633422851562 90.60372161865234 1 97.63340759277344 1 104.6677780151367 C 1 111.7021484375 1.708633422851562 118.7318344116211 3.106185913085938 125.5615158081055 C 4.468093872070312 132.2171173095703 6.50030517578125 138.7637786865234 9.146316528320312 145.0196533203125 C 11.744384765625 151.1621704101562 14.96012878417969 157.0867309570312 18.70423889160156 162.6287231445312 C 22.41294860839844 168.1183319091797 26.67214965820312 173.2805480957031 31.36360168457031 177.9719543457031 C 36.05502319335938 182.6633911132812 41.21723937988281 186.9226226806641 46.70683288574219 190.6313018798828 C 52.24884033203125 194.3754119873047 58.17338562011719 197.5911407470703 64.31591796875 200.1892242431641 C 70.57179260253906 202.8352203369141 77.11843872070312 204.867431640625 83.7740478515625 206.2293548583984 C 90.60372924804688 207.6269073486328 97.63341522216797 208.3355407714844 104.6677856445312 208.3355407714844 C 111.7021560668945 208.3355407714844 118.7318420410156 207.6269073486328 125.5615234375 206.2293548583984 C 132.2171325683594 204.867431640625 138.7637939453125 202.8352203369141 145.0196533203125 200.1892242431641 C 151.1621856689453 197.5911407470703 157.0867309570312 194.3754119873047 162.6287384033203 190.6313018798828 C 168.1183471679688 186.9226226806641 173.2805480957031 182.6633911132812 177.9719696044922 177.9719543457031 C 182.6634216308594 173.2805480957031 186.9226226806641 168.1183319091797 190.6313323974609 162.6287231445312 C 194.3754425048828 157.0867309570312 197.5911865234375 151.1621704101562 200.1892547607422 145.0196533203125 C 202.8352661132812 138.7637786865234 204.8674621582031 132.2171173095703 206.2293853759766 125.5615158081055 C 207.6269378662109 118.7318344116211 208.3355712890625 111.7021484375 208.3355712890625 104.6677780151367 C 208.3355712890625 97.63340759277344 207.6269378662109 90.60372161865234 206.2293853759766 83.77404022216797 C 204.8674621582031 77.11843872070312 202.8352661132812 70.57177734375 200.1892547607422 64.31590270996094 C 197.5911865234375 58.17338562011719 194.3754425048828 52.24882507324219 190.6313323974609 46.70683288574219 C 186.9226226806641 41.21722412109375 182.6634216308594 36.05500793457031 177.9719696044922 31.36358642578125 C 173.2805480957031 26.67214965820312 168.1183471679688 22.41293334960938 162.6287384033203 18.7042236328125 C 157.0867309570312 14.96011352539062 151.1621856689453 11.744384765625 145.0196533203125 9.14630126953125 C 138.7637939453125 6.50030517578125 132.2171325683594 4.468093872070312 125.5615234375 3.106170654296875 C 118.7318420410156 1.7086181640625 111.7021560668945 0.9999847412109375 104.6677856445312 0.9999847412109375 M 104.6677856445312 -1.52587890625e-05 C 162.4742126464844 -1.52587890625e-05 209.3355712890625 46.86135864257812 209.3355712890625 104.6677780151367 C 209.3355712890625 162.4741973876953 162.4742126464844 209.3355407714844 104.6677856445312 209.3355407714844 C 46.86135864257812 209.3355407714844 0 162.4741973876953 0 104.6677780151367 C 0 46.86135864257812 46.86135864257812 -1.52587890625e-05 104.6677856445312 -1.52587890625e-05 Z" stroke="none" fill="#707070"/>
    </g>
  </g>
  <g data-type="innerShadowGroup">
    <g transform="matrix(1, 0, 0, 1, 0, 0)" filter="url(#Path_2)">
      <g id="Path_2-3" data-name="Path 2" transform="translate(71.28 22.72)" fill="url(#radial-gradient-2)">
        <path d="M 87.95128631591797 175.4025573730469 C 82.01750183105469 175.4025573730469 76.08759307861328 174.8047943115234 70.32626342773438 173.6258392333984 C 64.71163177490234 172.4769287109375 59.18889617919922 170.7625885009766 53.91146087646484 168.5304107666016 C 48.72972106933594 166.3387145996094 43.73189544677734 163.6259765625 39.05678558349609 160.4675598144531 C 34.42598342895508 157.3390350341797 30.07137298583984 153.7461547851562 26.11389541625977 149.7886657714844 C 22.15641593933105 145.8311920166016 18.56352615356445 141.4765777587891 15.43500328063965 136.8457794189453 C 12.27659034729004 132.1706695556641 9.563851356506348 127.1728439331055 7.372155666351318 121.9911041259766 C 5.139981746673584 116.7136688232422 3.425634145736694 111.1909332275391 2.276721000671387 105.576301574707 C 1.097764611244202 99.81497192382812 0.5000036954879761 93.88506317138672 0.5000036954879761 87.95127868652344 C 0.5000036954879761 82.01749420166016 1.097764611244202 76.08758544921875 2.276721000671387 70.32625579833984 C 3.425634145736694 64.71162414550781 5.139981746673584 59.18888854980469 7.372155666351318 53.91145324707031 C 9.563851356506348 48.72971343994141 12.27659034729004 43.73188781738281 15.43500328063965 39.05677795410156 C 18.56352615356445 34.42597579956055 22.15641593933105 30.07136535644531 26.11389541625977 26.11388778686523 C 30.07137298583984 22.15640830993652 34.42598342895508 18.56351852416992 39.05678558349609 15.43499565124512 C 43.73189544677734 12.27658271789551 48.72972106933594 9.563843727111816 53.91146087646484 7.372148036956787 C 59.18889617919922 5.139974117279053 64.71163177490234 3.425626516342163 70.32626342773438 2.276713371276855 C 76.08759307861328 1.09775698184967 82.01750183105469 0.4999960660934448 87.95128631591797 0.4999960660934448 C 93.88507080078125 0.4999960660934448 99.81497955322266 1.09775698184967 105.5763092041016 2.276713371276855 C 111.1909408569336 3.425626516342163 116.7136764526367 5.139974117279053 121.9911117553711 7.372148036956787 C 127.1728515625 9.563843727111816 132.1706848144531 12.27658271789551 136.8457794189453 15.43499565124512 C 141.4765930175781 18.56351852416992 145.8311920166016 22.15640830993652 149.7886810302734 26.11388778686523 C 153.7461547851562 30.07136535644531 157.3390502929688 34.42597579956055 160.4675750732422 39.05677795410156 C 163.6259765625 43.73188781738281 166.3387145996094 48.72971343994141 168.5304107666016 53.91145324707031 C 170.7625885009766 59.18888854980469 172.4769439697266 64.71162414550781 173.6258544921875 70.32625579833984 C 174.8048095703125 76.08758544921875 175.4025726318359 82.01749420166016 175.4025726318359 87.95127868652344 C 175.4025726318359 93.88506317138672 174.8048095703125 99.81497192382812 173.6258544921875 105.576301574707 C 172.4769439697266 111.1909332275391 170.7625885009766 116.7136688232422 168.5304107666016 121.9911041259766 C 166.3387145996094 127.1728439331055 163.6259765625 132.1706695556641 160.4675750732422 136.8457794189453 C 157.3390502929688 141.4765777587891 153.7461547851562 145.8311920166016 149.7886810302734 149.7886657714844 C 145.8311920166016 153.7461547851562 141.4765930175781 157.3390350341797 136.8457794189453 160.4675598144531 C 132.1706848144531 163.6259765625 127.1728515625 166.3387145996094 121.9911117553711 168.5304107666016 C 116.7136764526367 170.7625885009766 111.1909408569336 172.4769287109375 105.5763092041016 173.6258392333984 C 99.81497955322266 174.8047943115234 93.88507080078125 175.4025573730469 87.95128631591797 175.4025573730469 Z" stroke="none"/>
        <path d="M 87.95128631591797 1 C 82.05110168457031 1 76.15492248535156 1.594375610351562 70.426513671875 2.766555786132812 C 64.84419250488281 3.90887451171875 59.35326385498047 5.61334228515625 54.10621643066406 7.832672119140625 C 48.95421600341797 10.01177978515625 43.98503112792969 12.70895385742188 39.33670043945312 15.84931945800781 C 34.73223876953125 18.96002197265625 30.40240478515625 22.53248596191406 26.46745300292969 26.46743774414062 C 22.532470703125 30.40242004394531 18.96000671386719 34.73225402832031 15.84930419921875 39.33668518066406 C 12.70893859863281 43.98503112792969 10.01176452636719 48.95423126220703 7.832656860351562 54.10623168945312 C 5.613327026367188 59.35325622558594 3.908859252929688 64.84420776367188 2.76654052734375 70.42650604248047 C 1.5943603515625 76.15491485595703 0.9999847412109375 82.05109405517578 0.9999847412109375 87.95127868652344 C 0.9999847412109375 93.85146331787109 1.5943603515625 99.74764251708984 2.76654052734375 105.4760513305664 C 3.908859252929688 111.058349609375 5.613327026367188 116.5493011474609 7.832656860351562 121.7963256835938 C 10.01176452636719 126.9483184814453 12.70893859863281 131.9175262451172 15.84930419921875 136.5658721923828 C 18.96000671386719 141.1703033447266 22.532470703125 145.5001373291016 26.46745300292969 149.4351196289062 C 30.40240478515625 153.3700714111328 34.73223876953125 156.9425354003906 39.33670043945312 160.0532379150391 C 43.98503112792969 163.193603515625 48.95421600341797 165.8907775878906 54.10621643066406 168.0698852539062 C 59.35326385498047 170.2892150878906 64.84419250488281 171.9936828613281 70.426513671875 173.1360015869141 C 76.15492248535156 174.3081817626953 82.05110168457031 174.9025573730469 87.95128631591797 174.9025573730469 C 93.85147094726562 174.9025573730469 99.74765014648438 174.3081817626953 105.4760589599609 173.1360015869141 C 111.0583572387695 171.9936828613281 116.5493087768555 170.2892150878906 121.7963333129883 168.0698852539062 C 126.9483337402344 165.8907775878906 131.9175415039062 163.193603515625 136.5658721923828 160.0532379150391 C 141.1703033447266 156.9425354003906 145.5001525878906 153.3700714111328 149.4351196289062 149.4351196289062 C 153.3700866699219 145.5001373291016 156.9425354003906 141.1703033447266 160.0532379150391 136.5658721923828 C 163.193603515625 131.9175262451172 165.8907928466797 126.9483184814453 168.0699005126953 121.7963256835938 C 170.2892150878906 116.5493011474609 171.9936981201172 111.058349609375 173.1360168457031 105.4760513305664 C 174.3081970214844 99.74764251708984 174.9025573730469 93.85146331787109 174.9025573730469 87.95127868652344 C 174.9025573730469 82.05109405517578 174.3081970214844 76.15491485595703 173.1360168457031 70.42650604248047 C 171.9936981201172 64.84420776367188 170.2892150878906 59.35325622558594 168.0699005126953 54.10623168945312 C 165.8907928466797 48.95423126220703 163.193603515625 43.98503112792969 160.0532379150391 39.33668518066406 C 156.9425354003906 34.73225402832031 153.3700866699219 30.40242004394531 149.4351196289062 26.46743774414062 C 145.5001525878906 22.53248596191406 141.1703033447266 18.96002197265625 136.5658721923828 15.84931945800781 C 131.9175415039062 12.70895385742188 126.9483337402344 10.01177978515625 121.7963333129883 7.832672119140625 C 116.5493087768555 5.61334228515625 111.0583572387695 3.90887451171875 105.4760589599609 2.766555786132812 C 99.74765014648438 1.594375610351562 93.85147094726562 1 87.95128631591797 1 M 87.95128631591797 0 C 136.5254211425781 0 175.9025573730469 39.37713623046875 175.9025573730469 87.95127868652344 C 175.9025573730469 136.5254211425781 136.5254211425781 175.9025573730469 87.95128631591797 175.9025573730469 C 39.37712097167969 175.9025573730469 -1.52587890625e-05 136.5254211425781 -1.52587890625e-05 87.95127868652344 C -1.52587890625e-05 39.37713623046875 39.37712097167969 0 87.95128631591797 0 Z" stroke="none" fill="#707070"/>
      </g>
    </g>
    <g id="Path_2-4" data-name="Path 2" transform="translate(71.28 22.716)" fill="url(#radial-gradient-2)">
      <path d="M 87.95128631591797 175.4025573730469 C 82.01750183105469 175.4025573730469 76.08759307861328 174.8047943115234 70.32626342773438 173.6258392333984 C 64.71163177490234 172.4769287109375 59.18889617919922 170.7625885009766 53.91146087646484 168.5304107666016 C 48.72972106933594 166.3387145996094 43.73189544677734 163.6259765625 39.05678558349609 160.4675598144531 C 34.42598342895508 157.3390350341797 30.07137298583984 153.7461547851562 26.11389541625977 149.7886657714844 C 22.15641593933105 145.8311920166016 18.56352615356445 141.4765777587891 15.43500328063965 136.8457794189453 C 12.27659034729004 132.1706695556641 9.563851356506348 127.1728439331055 7.372155666351318 121.9911041259766 C 5.139981746673584 116.7136688232422 3.425634145736694 111.1909332275391 2.276721000671387 105.576301574707 C 1.097764611244202 99.81497192382812 0.5000036954879761 93.88506317138672 0.5000036954879761 87.95127868652344 C 0.5000036954879761 82.01749420166016 1.097764611244202 76.08758544921875 2.276721000671387 70.32625579833984 C 3.425634145736694 64.71162414550781 5.139981746673584 59.18888854980469 7.372155666351318 53.91145324707031 C 9.563851356506348 48.72971343994141 12.27659034729004 43.73188781738281 15.43500328063965 39.05677795410156 C 18.56352615356445 34.42597579956055 22.15641593933105 30.07136535644531 26.11389541625977 26.11388778686523 C 30.07137298583984 22.15640830993652 34.42598342895508 18.56351852416992 39.05678558349609 15.43499565124512 C 43.73189544677734 12.27658271789551 48.72972106933594 9.563843727111816 53.91146087646484 7.372148036956787 C 59.18889617919922 5.139974117279053 64.71163177490234 3.425626516342163 70.32626342773438 2.276713371276855 C 76.08759307861328 1.09775698184967 82.01750183105469 0.4999960660934448 87.95128631591797 0.4999960660934448 C 93.88507080078125 0.4999960660934448 99.81497955322266 1.09775698184967 105.5763092041016 2.276713371276855 C 111.1909408569336 3.425626516342163 116.7136764526367 5.139974117279053 121.9911117553711 7.372148036956787 C 127.1728515625 9.563843727111816 132.1706848144531 12.27658271789551 136.8457794189453 15.43499565124512 C 141.4765930175781 18.56351852416992 145.8311920166016 22.15640830993652 149.7886810302734 26.11388778686523 C 153.7461547851562 30.07136535644531 157.3390502929688 34.42597579956055 160.4675750732422 39.05677795410156 C 163.6259765625 43.73188781738281 166.3387145996094 48.72971343994141 168.5304107666016 53.91145324707031 C 170.7625885009766 59.18888854980469 172.4769439697266 64.71162414550781 173.6258544921875 70.32625579833984 C 174.8048095703125 76.08758544921875 175.4025726318359 82.01749420166016 175.4025726318359 87.95127868652344 C 175.4025726318359 93.88506317138672 174.8048095703125 99.81497192382812 173.6258544921875 105.576301574707 C 172.4769439697266 111.1909332275391 170.7625885009766 116.7136688232422 168.5304107666016 121.9911041259766 C 166.3387145996094 127.1728439331055 163.6259765625 132.1706695556641 160.4675750732422 136.8457794189453 C 157.3390502929688 141.4765777587891 153.7461547851562 145.8311920166016 149.7886810302734 149.7886657714844 C 145.8311920166016 153.7461547851562 141.4765930175781 157.3390350341797 136.8457794189453 160.4675598144531 C 132.1706848144531 163.6259765625 127.1728515625 166.3387145996094 121.9911117553711 168.5304107666016 C 116.7136764526367 170.7625885009766 111.1909408569336 172.4769287109375 105.5763092041016 173.6258392333984 C 99.81497955322266 174.8047943115234 93.88507080078125 175.4025573730469 87.95128631591797 175.4025573730469 Z" stroke="none"/>
      <path d="M 87.95128631591797 1 C 82.05110168457031 1 76.15492248535156 1.594375610351562 70.426513671875 2.766555786132812 C 64.84419250488281 3.90887451171875 59.35326385498047 5.61334228515625 54.10621643066406 7.832672119140625 C 48.95421600341797 10.01177978515625 43.98503112792969 12.70895385742188 39.33670043945312 15.84931945800781 C 34.73223876953125 18.96002197265625 30.40240478515625 22.53248596191406 26.46745300292969 26.46743774414062 C 22.532470703125 30.40242004394531 18.96000671386719 34.73225402832031 15.84930419921875 39.33668518066406 C 12.70893859863281 43.98503112792969 10.01176452636719 48.95423126220703 7.832656860351562 54.10623168945312 C 5.613327026367188 59.35325622558594 3.908859252929688 64.84420776367188 2.76654052734375 70.42650604248047 C 1.5943603515625 76.15491485595703 0.9999847412109375 82.05109405517578 0.9999847412109375 87.95127868652344 C 0.9999847412109375 93.85146331787109 1.5943603515625 99.74764251708984 2.76654052734375 105.4760513305664 C 3.908859252929688 111.058349609375 5.613327026367188 116.5493011474609 7.832656860351562 121.7963256835938 C 10.01176452636719 126.9483184814453 12.70893859863281 131.9175262451172 15.84930419921875 136.5658721923828 C 18.96000671386719 141.1703033447266 22.532470703125 145.5001373291016 26.46745300292969 149.4351196289062 C 30.40240478515625 153.3700714111328 34.73223876953125 156.9425354003906 39.33670043945312 160.0532379150391 C 43.98503112792969 163.193603515625 48.95421600341797 165.8907775878906 54.10621643066406 168.0698852539062 C 59.35326385498047 170.2892150878906 64.84419250488281 171.9936828613281 70.426513671875 173.1360015869141 C 76.15492248535156 174.3081817626953 82.05110168457031 174.9025573730469 87.95128631591797 174.9025573730469 C 93.85147094726562 174.9025573730469 99.74765014648438 174.3081817626953 105.4760589599609 173.1360015869141 C 111.0583572387695 171.9936828613281 116.5493087768555 170.2892150878906 121.7963333129883 168.0698852539062 C 126.9483337402344 165.8907775878906 131.9175415039062 163.193603515625 136.5658721923828 160.0532379150391 C 141.1703033447266 156.9425354003906 145.5001525878906 153.3700714111328 149.4351196289062 149.4351196289062 C 153.3700866699219 145.5001373291016 156.9425354003906 141.1703033447266 160.0532379150391 136.5658721923828 C 163.193603515625 131.9175262451172 165.8907928466797 126.9483184814453 168.0699005126953 121.7963256835938 C 170.2892150878906 116.5493011474609 171.9936981201172 111.058349609375 173.1360168457031 105.4760513305664 C 174.3081970214844 99.74764251708984 174.9025573730469 93.85146331787109 174.9025573730469 87.95127868652344 C 174.9025573730469 82.05109405517578 174.3081970214844 76.15491485595703 173.1360168457031 70.42650604248047 C 171.9936981201172 64.84420776367188 170.2892150878906 59.35325622558594 168.0699005126953 54.10623168945312 C 165.8907928466797 48.95423126220703 163.193603515625 43.98503112792969 160.0532379150391 39.33668518066406 C 156.9425354003906 34.73225402832031 153.3700866699219 30.40242004394531 149.4351196289062 26.46743774414062 C 145.5001525878906 22.53248596191406 141.1703033447266 18.96002197265625 136.5658721923828 15.84931945800781 C 131.9175415039062 12.70895385742188 126.9483337402344 10.01177978515625 121.7963333129883 7.832672119140625 C 116.5493087768555 5.61334228515625 111.0583572387695 3.90887451171875 105.4760589599609 2.766555786132812 C 99.74765014648438 1.594375610351562 93.85147094726562 1 87.95128631591797 1 M 87.95128631591797 0 C 136.5254211425781 0 175.9025573730469 39.37713623046875 175.9025573730469 87.95127868652344 C 175.9025573730469 136.5254211425781 136.5254211425781 175.9025573730469 87.95128631591797 175.9025573730469 C 39.37712097167969 175.9025573730469 -1.52587890625e-05 136.5254211425781 -1.52587890625e-05 87.95127868652344 C -1.52587890625e-05 39.37713623046875 39.37712097167969 0 87.95128631591797 0 Z" stroke="none"/>
    </g>
    <g transform="matrix(1, 0, 0, 1, 0, 0)" filter="url(#Path_2-2)">
      <g id="Path_2-5" data-name="Path 2" transform="translate(71.28 22.72)" fill="#fff">
        <path d="M 87.95128631591797 175.4025573730469 C 82.01750183105469 175.4025573730469 76.08759307861328 174.8047943115234 70.32626342773438 173.6258392333984 C 64.71163177490234 172.4769287109375 59.18889617919922 170.7625885009766 53.91146087646484 168.5304107666016 C 48.72972106933594 166.3387145996094 43.73189544677734 163.6259765625 39.05678558349609 160.4675598144531 C 34.42598342895508 157.3390350341797 30.07137298583984 153.7461547851562 26.11389541625977 149.7886657714844 C 22.15641593933105 145.8311920166016 18.56352615356445 141.4765777587891 15.43500328063965 136.8457794189453 C 12.27659034729004 132.1706695556641 9.563851356506348 127.1728439331055 7.372155666351318 121.9911041259766 C 5.139981746673584 116.7136688232422 3.425634145736694 111.1909332275391 2.276721000671387 105.576301574707 C 1.097764611244202 99.81497192382812 0.5000036954879761 93.88506317138672 0.5000036954879761 87.95127868652344 C 0.5000036954879761 82.01749420166016 1.097764611244202 76.08758544921875 2.276721000671387 70.32625579833984 C 3.425634145736694 64.71162414550781 5.139981746673584 59.18888854980469 7.372155666351318 53.91145324707031 C 9.563851356506348 48.72971343994141 12.27659034729004 43.73188781738281 15.43500328063965 39.05677795410156 C 18.56352615356445 34.42597579956055 22.15641593933105 30.07136535644531 26.11389541625977 26.11388778686523 C 30.07137298583984 22.15640830993652 34.42598342895508 18.56351852416992 39.05678558349609 15.43499565124512 C 43.73189544677734 12.27658271789551 48.72972106933594 9.563843727111816 53.91146087646484 7.372148036956787 C 59.18889617919922 5.139974117279053 64.71163177490234 3.425626516342163 70.32626342773438 2.276713371276855 C 76.08759307861328 1.09775698184967 82.01750183105469 0.4999960660934448 87.95128631591797 0.4999960660934448 C 93.88507080078125 0.4999960660934448 99.81497955322266 1.09775698184967 105.5763092041016 2.276713371276855 C 111.1909408569336 3.425626516342163 116.7136764526367 5.139974117279053 121.9911117553711 7.372148036956787 C 127.1728515625 9.563843727111816 132.1706848144531 12.27658271789551 136.8457794189453 15.43499565124512 C 141.4765930175781 18.56351852416992 145.8311920166016 22.15640830993652 149.7886810302734 26.11388778686523 C 153.7461547851562 30.07136535644531 157.3390502929688 34.42597579956055 160.4675750732422 39.05677795410156 C 163.6259765625 43.73188781738281 166.3387145996094 48.72971343994141 168.5304107666016 53.91145324707031 C 170.7625885009766 59.18888854980469 172.4769439697266 64.71162414550781 173.6258544921875 70.32625579833984 C 174.8048095703125 76.08758544921875 175.4025726318359 82.01749420166016 175.4025726318359 87.95127868652344 C 175.4025726318359 93.88506317138672 174.8048095703125 99.81497192382812 173.6258544921875 105.576301574707 C 172.4769439697266 111.1909332275391 170.7625885009766 116.7136688232422 168.5304107666016 121.9911041259766 C 166.3387145996094 127.1728439331055 163.6259765625 132.1706695556641 160.4675750732422 136.8457794189453 C 157.3390502929688 141.4765777587891 153.7461547851562 145.8311920166016 149.7886810302734 149.7886657714844 C 145.8311920166016 153.7461547851562 141.4765930175781 157.3390350341797 136.8457794189453 160.4675598144531 C 132.1706848144531 163.6259765625 127.1728515625 166.3387145996094 121.9911117553711 168.5304107666016 C 116.7136764526367 170.7625885009766 111.1909408569336 172.4769287109375 105.5763092041016 173.6258392333984 C 99.81497955322266 174.8047943115234 93.88507080078125 175.4025573730469 87.95128631591797 175.4025573730469 Z" stroke="none"/>
        <path d="M 87.95128631591797 1 C 82.05110168457031 1 76.15492248535156 1.594375610351562 70.426513671875 2.766555786132812 C 64.84419250488281 3.90887451171875 59.35326385498047 5.61334228515625 54.10621643066406 7.832672119140625 C 48.95421600341797 10.01177978515625 43.98503112792969 12.70895385742188 39.33670043945312 15.84931945800781 C 34.73223876953125 18.96002197265625 30.40240478515625 22.53248596191406 26.46745300292969 26.46743774414062 C 22.532470703125 30.40242004394531 18.96000671386719 34.73225402832031 15.84930419921875 39.33668518066406 C 12.70893859863281 43.98503112792969 10.01176452636719 48.95423126220703 7.832656860351562 54.10623168945312 C 5.613327026367188 59.35325622558594 3.908859252929688 64.84420776367188 2.76654052734375 70.42650604248047 C 1.5943603515625 76.15491485595703 0.9999847412109375 82.05109405517578 0.9999847412109375 87.95127868652344 C 0.9999847412109375 93.85146331787109 1.5943603515625 99.74764251708984 2.76654052734375 105.4760513305664 C 3.908859252929688 111.058349609375 5.613327026367188 116.5493011474609 7.832656860351562 121.7963256835938 C 10.01176452636719 126.9483184814453 12.70893859863281 131.9175262451172 15.84930419921875 136.5658721923828 C 18.96000671386719 141.1703033447266 22.532470703125 145.5001373291016 26.46745300292969 149.4351196289062 C 30.40240478515625 153.3700714111328 34.73223876953125 156.9425354003906 39.33670043945312 160.0532379150391 C 43.98503112792969 163.193603515625 48.95421600341797 165.8907775878906 54.10621643066406 168.0698852539062 C 59.35326385498047 170.2892150878906 64.84419250488281 171.9936828613281 70.426513671875 173.1360015869141 C 76.15492248535156 174.3081817626953 82.05110168457031 174.9025573730469 87.95128631591797 174.9025573730469 C 93.85147094726562 174.9025573730469 99.74765014648438 174.3081817626953 105.4760589599609 173.1360015869141 C 111.0583572387695 171.9936828613281 116.5493087768555 170.2892150878906 121.7963333129883 168.0698852539062 C 126.9483337402344 165.8907775878906 131.9175415039062 163.193603515625 136.5658721923828 160.0532379150391 C 141.1703033447266 156.9425354003906 145.5001525878906 153.3700714111328 149.4351196289062 149.4351196289062 C 153.3700866699219 145.5001373291016 156.9425354003906 141.1703033447266 160.0532379150391 136.5658721923828 C 163.193603515625 131.9175262451172 165.8907928466797 126.9483184814453 168.0699005126953 121.7963256835938 C 170.2892150878906 116.5493011474609 171.9936981201172 111.058349609375 173.1360168457031 105.4760513305664 C 174.3081970214844 99.74764251708984 174.9025573730469 93.85146331787109 174.9025573730469 87.95127868652344 C 174.9025573730469 82.05109405517578 174.3081970214844 76.15491485595703 173.1360168457031 70.42650604248047 C 171.9936981201172 64.84420776367188 170.2892150878906 59.35325622558594 168.0699005126953 54.10623168945312 C 165.8907928466797 48.95423126220703 163.193603515625 43.98503112792969 160.0532379150391 39.33668518066406 C 156.9425354003906 34.73225402832031 153.3700866699219 30.40242004394531 149.4351196289062 26.46743774414062 C 145.5001525878906 22.53248596191406 141.1703033447266 18.96002197265625 136.5658721923828 15.84931945800781 C 131.9175415039062 12.70895385742188 126.9483337402344 10.01177978515625 121.7963333129883 7.832672119140625 C 116.5493087768555 5.61334228515625 111.0583572387695 3.90887451171875 105.4760589599609 2.766555786132812 C 99.74765014648438 1.594375610351562 93.85147094726562 1 87.95128631591797 1 M 87.95128631591797 0 C 136.5254211425781 0 175.9025573730469 39.37713623046875 175.9025573730469 87.95127868652344 C 175.9025573730469 136.5254211425781 136.5254211425781 175.9025573730469 87.95128631591797 175.9025573730469 C 39.37712097167969 175.9025573730469 -1.52587890625e-05 136.5254211425781 -1.52587890625e-05 87.95127868652344 C -1.52587890625e-05 39.37713623046875 39.37712097167969 0 87.95128631591797 0 Z" stroke="none"/>
      </g>
    </g>
    <g id="Path_2-6" data-name="Path 2" transform="translate(71.28 22.716)" fill="none">
      <path d="M 87.95128631591797 175.4025573730469 C 82.01750183105469 175.4025573730469 76.08759307861328 174.8047943115234 70.32626342773438 173.6258392333984 C 64.71163177490234 172.4769287109375 59.18889617919922 170.7625885009766 53.91146087646484 168.5304107666016 C 48.72972106933594 166.3387145996094 43.73189544677734 163.6259765625 39.05678558349609 160.4675598144531 C 34.42598342895508 157.3390350341797 30.07137298583984 153.7461547851562 26.11389541625977 149.7886657714844 C 22.15641593933105 145.8311920166016 18.56352615356445 141.4765777587891 15.43500328063965 136.8457794189453 C 12.27659034729004 132.1706695556641 9.563851356506348 127.1728439331055 7.372155666351318 121.9911041259766 C 5.139981746673584 116.7136688232422 3.425634145736694 111.1909332275391 2.276721000671387 105.576301574707 C 1.097764611244202 99.81497192382812 0.5000036954879761 93.88506317138672 0.5000036954879761 87.95127868652344 C 0.5000036954879761 82.01749420166016 1.097764611244202 76.08758544921875 2.276721000671387 70.32625579833984 C 3.425634145736694 64.71162414550781 5.139981746673584 59.18888854980469 7.372155666351318 53.91145324707031 C 9.563851356506348 48.72971343994141 12.27659034729004 43.73188781738281 15.43500328063965 39.05677795410156 C 18.56352615356445 34.42597579956055 22.15641593933105 30.07136535644531 26.11389541625977 26.11388778686523 C 30.07137298583984 22.15640830993652 34.42598342895508 18.56351852416992 39.05678558349609 15.43499565124512 C 43.73189544677734 12.27658271789551 48.72972106933594 9.563843727111816 53.91146087646484 7.372148036956787 C 59.18889617919922 5.139974117279053 64.71163177490234 3.425626516342163 70.32626342773438 2.276713371276855 C 76.08759307861328 1.09775698184967 82.01750183105469 0.4999960660934448 87.95128631591797 0.4999960660934448 C 93.88507080078125 0.4999960660934448 99.81497955322266 1.09775698184967 105.5763092041016 2.276713371276855 C 111.1909408569336 3.425626516342163 116.7136764526367 5.139974117279053 121.9911117553711 7.372148036956787 C 127.1728515625 9.563843727111816 132.1706848144531 12.27658271789551 136.8457794189453 15.43499565124512 C 141.4765930175781 18.56351852416992 145.8311920166016 22.15640830993652 149.7886810302734 26.11388778686523 C 153.7461547851562 30.07136535644531 157.3390502929688 34.42597579956055 160.4675750732422 39.05677795410156 C 163.6259765625 43.73188781738281 166.3387145996094 48.72971343994141 168.5304107666016 53.91145324707031 C 170.7625885009766 59.18888854980469 172.4769439697266 64.71162414550781 173.6258544921875 70.32625579833984 C 174.8048095703125 76.08758544921875 175.4025726318359 82.01749420166016 175.4025726318359 87.95127868652344 C 175.4025726318359 93.88506317138672 174.8048095703125 99.81497192382812 173.6258544921875 105.576301574707 C 172.4769439697266 111.1909332275391 170.7625885009766 116.7136688232422 168.5304107666016 121.9911041259766 C 166.3387145996094 127.1728439331055 163.6259765625 132.1706695556641 160.4675750732422 136.8457794189453 C 157.3390502929688 141.4765777587891 153.7461547851562 145.8311920166016 149.7886810302734 149.7886657714844 C 145.8311920166016 153.7461547851562 141.4765930175781 157.3390350341797 136.8457794189453 160.4675598144531 C 132.1706848144531 163.6259765625 127.1728515625 166.3387145996094 121.9911117553711 168.5304107666016 C 116.7136764526367 170.7625885009766 111.1909408569336 172.4769287109375 105.5763092041016 173.6258392333984 C 99.81497955322266 174.8047943115234 93.88507080078125 175.4025573730469 87.95128631591797 175.4025573730469 Z" stroke="none"/>
      <path d="M 87.95128631591797 1 C 82.05110168457031 1 76.15492248535156 1.594375610351562 70.426513671875 2.766555786132812 C 64.84419250488281 3.90887451171875 59.35326385498047 5.61334228515625 54.10621643066406 7.832672119140625 C 48.95421600341797 10.01177978515625 43.98503112792969 12.70895385742188 39.33670043945312 15.84931945800781 C 34.73223876953125 18.96002197265625 30.40240478515625 22.53248596191406 26.46745300292969 26.46743774414062 C 22.532470703125 30.40242004394531 18.96000671386719 34.73225402832031 15.84930419921875 39.33668518066406 C 12.70893859863281 43.98503112792969 10.01176452636719 48.95423126220703 7.832656860351562 54.10623168945312 C 5.613327026367188 59.35325622558594 3.908859252929688 64.84420776367188 2.76654052734375 70.42650604248047 C 1.5943603515625 76.15491485595703 0.9999847412109375 82.05109405517578 0.9999847412109375 87.95127868652344 C 0.9999847412109375 93.85146331787109 1.5943603515625 99.74764251708984 2.76654052734375 105.4760513305664 C 3.908859252929688 111.058349609375 5.613327026367188 116.5493011474609 7.832656860351562 121.7963256835938 C 10.01176452636719 126.9483184814453 12.70893859863281 131.9175262451172 15.84930419921875 136.5658721923828 C 18.96000671386719 141.1703033447266 22.532470703125 145.5001373291016 26.46745300292969 149.4351196289062 C 30.40240478515625 153.3700714111328 34.73223876953125 156.9425354003906 39.33670043945312 160.0532379150391 C 43.98503112792969 163.193603515625 48.95421600341797 165.8907775878906 54.10621643066406 168.0698852539062 C 59.35326385498047 170.2892150878906 64.84419250488281 171.9936828613281 70.426513671875 173.1360015869141 C 76.15492248535156 174.3081817626953 82.05110168457031 174.9025573730469 87.95128631591797 174.9025573730469 C 93.85147094726562 174.9025573730469 99.74765014648438 174.3081817626953 105.4760589599609 173.1360015869141 C 111.0583572387695 171.9936828613281 116.5493087768555 170.2892150878906 121.7963333129883 168.0698852539062 C 126.9483337402344 165.8907775878906 131.9175415039062 163.193603515625 136.5658721923828 160.0532379150391 C 141.1703033447266 156.9425354003906 145.5001525878906 153.3700714111328 149.4351196289062 149.4351196289062 C 153.3700866699219 145.5001373291016 156.9425354003906 141.1703033447266 160.0532379150391 136.5658721923828 C 163.193603515625 131.9175262451172 165.8907928466797 126.9483184814453 168.0699005126953 121.7963256835938 C 170.2892150878906 116.5493011474609 171.9936981201172 111.058349609375 173.1360168457031 105.4760513305664 C 174.3081970214844 99.74764251708984 174.9025573730469 93.85146331787109 174.9025573730469 87.95127868652344 C 174.9025573730469 82.05109405517578 174.3081970214844 76.15491485595703 173.1360168457031 70.42650604248047 C 171.9936981201172 64.84420776367188 170.2892150878906 59.35325622558594 168.0699005126953 54.10623168945312 C 165.8907928466797 48.95423126220703 163.193603515625 43.98503112792969 160.0532379150391 39.33668518066406 C 156.9425354003906 34.73225402832031 153.3700866699219 30.40242004394531 149.4351196289062 26.46743774414062 C 145.5001525878906 22.53248596191406 141.1703033447266 18.96002197265625 136.5658721923828 15.84931945800781 C 131.9175415039062 12.70895385742188 126.9483337402344 10.01177978515625 121.7963333129883 7.832672119140625 C 116.5493087768555 5.61334228515625 111.0583572387695 3.90887451171875 105.4760589599609 2.766555786132812 C 99.74765014648438 1.594375610351562 93.85147094726562 1 87.95128631591797 1 M 87.95128631591797 0 C 136.5254211425781 0 175.9025573730469 39.37713623046875 175.9025573730469 87.95127868652344 C 175.9025573730469 136.5254211425781 136.5254211425781 175.9025573730469 87.95128631591797 175.9025573730469 C 39.37712097167969 175.9025573730469 -1.52587890625e-05 136.5254211425781 -1.52587890625e-05 87.95127868652344 C -1.52587890625e-05 39.37713623046875 39.37712097167969 0 87.95128631591797 0 Z" stroke="none" fill="#707070"/>
    </g>
  </g>
</svg>
